# xmcd CD database file
#
# Track frame offsets:
#	150
#	16377
#	34670
#	53617
#	73250
#	91177
#	107715
#	123817
#	137407
#	152327
#	165247
#	186184
#	201300
#	216407
#
# Disc length: 3156 seconds
#
# Revision: 1
# Processed by: cddbd v1.5.1PL0 Copyright (c) Steve Scherf et al.
# Submitted via: CDex 1.51
#
DISCID=b40c520e
DTITLE=Tranquility - Soul and Heart
DYEAR=1900
DGENRE=New Age
TTITLE0=Sea Water
TTITLE1=Nice Angel
TTITLE2=Flying Thoughts
TTITLE3=Planet Sun
TTITLE4=Flutes
TTITLE5=Memories
TTITLE6=Mila
TTITLE7=Soul and Heart
TTITLE8=Fantasies
TTITLE9=Fingering
TTITLE10=Live Nature
TTITLE11=Free Air
TTITLE12=Presentiment
TTITLE13=Forestal
EXTD=
EXTT0=
EXTT1=
EXTT2=
EXTT3=
EXTT4=
EXTT5=
EXTT6=
EXTT7=
EXTT8=
EXTT9=
EXTT10=
EXTT11=
EXTT12=
EXTT13=
PLAYORDER=
